<?xml version="1.0" encoding="UTF-8" standalone="no"?>
<!-- Generator: Adobe Illustrator 24.3.0, SVG Export Plug-In . SVG Version: 6.00 Build 0)  -->

<svg
   version="1.1"
   id="Layer_1"
   x="0px"
   y="0px"
   viewBox="0 0 636 300"
   style="enable-background:new 0 0 636 300;"
   xml:space="preserve"
   sodipodi:docname="tech-empower-results.svg"
   inkscape:version="1.1.2 (b8e25be833, 2022-02-05)"
   xmlns:inkscape="http://www.inkscape.org/namespaces/inkscape"
   xmlns:sodipodi="http://sodipodi.sourceforge.net/DTD/sodipodi-0.dtd"
   xmlns="http://www.w3.org/2000/svg"
   xmlns:svg="http://www.w3.org/2000/svg"><defs
   id="defs229">
	
	
	
	
	
	
	
	
	
	
	
	
	
	
	
	
	
	
	

		
		
		
		
		
		
		
		
		
		
		
		
		
		
		
		
		
	
		
		
		
		
		
		
		
		
		
		
		
		
		
		
		
		
		
	
		
		
		
		
		
		
		
		
		
		
		
		
		
		
		
		
		
	</defs><sodipodi:namedview
   id="namedview227"
   pagecolor="#ffffff"
   bordercolor="#666666"
   borderopacity="1.0"
   inkscape:pageshadow="2"
   inkscape:pageopacity="0.0"
   inkscape:pagecheckerboard="0"
   showgrid="false"
   inkscape:zoom="1.663522"
   inkscape:cx="317.69943"
   inkscape:cy="150.28355"
   inkscape:window-width="2560"
   inkscape:window-height="1369"
   inkscape:window-x="-8"
   inkscape:window-y="-8"
   inkscape:window-maximized="1"
   inkscape:current-layer="Layer_1" />
<style
   type="text/css"
   id="style2">
	.st0{fill:#3E8EED;}
	.st1{fill:#D1C5F4;}
	.st2{fill:#FFFFFF;}
	.st3{fill:#522CD5;}
	.st4{fill:#957EE6;}
	.st5{fill:#605D5A;}
	.st6{fill:#A3C9F6;}
	.st7{fill:#0064DA;}
</style>
<g
   id="g6">
		<circle
   class="st0"
   cx="319.89999"
   cy="152.10001"
   r="90.099998"
   id="circle4" />
	</g><g
   id="g10">
		<path
   class="st0"
   d="m 148.4,94.3 c -35.8,0 -64.9,29.1 -64.9,64.9 0,35.8 29.1,64.9 64.9,64.9 35.8,0 64.9,-29.1 64.9,-64.9 -0.1,-35.8 -29.2,-64.9 -64.9,-64.9 z"
   id="path8" />
	</g><g
   id="g14">
		<path
   class="st0"
   d="m 480.7,94.6 c -35.8,0 -64.9,29.1 -64.9,64.9 0,35.8 29.1,64.9 64.9,64.9 35.8,0 64.9,-29.1 64.9,-64.9 0,-35.8 -29.1,-64.9 -64.9,-64.9 z"
   id="path12" />
	</g><g
   id="g18">
		<path
   class="st1"
   d="m 276.3,164.9 c -1.2,-4.1 -1.8,-8.4 -1.8,-12.8 0,-25.1 20.3,-45.4 45.4,-45.4 25.1,0 45.4,20.3 45.4,45.4 0,4.4 -0.6,8.6 -1.8,12.6 l 20.3,6.5 c 1.8,-6 2.8,-12.4 2.8,-19.1 0,-36.8 -29.9,-66.7 -66.7,-66.7 -36.8,0 -66.7,29.9 -66.7,66.7 0,6.7 1,13.1 2.8,19.1 z"
   id="path16" />
	</g><g
   id="g22">
		<path
   class="st2"
   d="m 362.2,135.6 c 2,5.1 3.1,10.7 3.1,16.5 0,4.4 -0.6,8.6 -1.8,12.6 l 20.3,6.5 c 1.8,-6 2.8,-12.4 2.8,-19.1 0,-8.6 -1.6,-16.7 -4.6,-24.2 z"
   id="path20" />
	</g><g
   id="g26">
		<path
   class="st2"
   d="m 118.6,168.1 c -0.8,-2.8 -1.3,-5.7 -1.3,-8.7 0,-17.1 13.9,-31 31,-31 17.1,0 31,13.9 31,31 0,3 -0.4,5.8 -1.2,8.6 l 13.8,4.4 c 1.2,-4.1 1.9,-8.5 1.9,-13 0,-25.1 -20.4,-45.5 -45.5,-45.5 -25.1,0 -45.5,20.4 -45.5,45.5 0,4.5 0.7,8.9 1.9,13.1 z"
   id="path24" />
	</g><g
   id="g30">
		<path
   class="st2"
   d="m 450.9,168 c -0.8,-2.8 -1.3,-5.7 -1.3,-8.7 0,-17.1 13.9,-31 31,-31 17.1,0 31,13.9 31,31 0,3 -0.4,5.9 -1.2,8.6 l 13.8,4.4 c 1.2,-4.1 1.9,-8.5 1.9,-13 0,-25.1 -20.4,-45.5 -45.5,-45.5 -25.1,0 -45.5,20.4 -45.5,45.5 0,4.5 0.7,8.9 1.9,13.1 z"
   id="path28" />
	</g><g
   id="g34">
		<path
   class="st3"
   d="m 365,115.8 c 0,0 -22.5,9.4 -49.7,20.7 -6.1,1.9 -10.6,7.5 -10.6,14.2 0,8.2 6.7,14.9 15,14.9 4.7,0 8.8,-2.1 11.6,-5.5 0.1,-0.1 0.2,-0.2 0.3,-0.3 12.2,-14.1 33.4,-44 33.4,-44 z"
   id="path32" />
	</g><g
   id="g38">
		<path
   class="st4"
   d="m 319.8,157.4 c 3.7,0 6.7,-3 6.7,-6.7 0,-3.7 -3,-6.7 -6.7,-6.7 -3.7,0 -6.7,3 -6.7,6.7 0,3.7 3,6.7 6.7,6.7 z"
   id="path36" />
	</g><g
   id="g90">
		<g
   id="g62">
			<path
   class="st5"
   d="m 100.2,267 c -0.5,0 -0.9,-0.1 -1.2,-0.2 v -1.1 c 0.4,0.1 0.8,0.2 1.2,0.2 0.5,0 0.9,-0.2 1.2,-0.5 0.3,-0.3 0.4,-0.8 0.4,-1.4 v -11.4 h 1.3 v 11.3 c 0,1 -0.2,1.8 -0.7,2.3 -0.5,0.5 -1.3,0.8 -2.2,0.8 z"
   id="path40" />
			<path
   class="st5"
   d="m 111.2,264 -0.3,-1.2 h -0.1 c -0.4,0.5 -0.9,0.9 -1.3,1.1 -0.4,0.2 -1,0.3 -1.6,0.3 -0.8,0 -1.5,-0.2 -2,-0.7 -0.5,-0.4 -0.7,-1.1 -0.7,-1.9 0,-1.7 1.4,-2.6 4.1,-2.7 h 1.5 v -0.5 c 0,-0.7 -0.1,-1.2 -0.4,-1.5 -0.3,-0.3 -0.8,-0.5 -1.4,-0.5 -0.7,0 -1.5,0.2 -2.4,0.7 l -0.4,-1 c 0.4,-0.2 0.9,-0.4 1.4,-0.5 0.5,-0.1 1,-0.2 1.5,-0.2 1,0 1.8,0.2 2.3,0.7 0.5,0.5 0.7,1.2 0.7,2.2 v 5.8 h -0.9 z m -2.9,-0.9 c 0.8,0 1.4,-0.2 1.9,-0.7 0.5,-0.5 0.7,-1.1 0.7,-1.9 v -0.8 l -1.3,0.1 c -1,0 -1.8,0.2 -2.2,0.5 -0.5,0.3 -0.7,0.7 -0.7,1.3 0,0.5 0.1,0.8 0.4,1.1 0.3,0.2 0.7,0.4 1.2,0.4 z"
   id="path42" />
			<path
   class="st5"
   d="m 116.7,264 -3.2,-8.6 h 1.4 l 1.8,5.1 c 0.4,1.2 0.7,2 0.7,2.3 h 0.1 c 0.1,-0.3 0.2,-0.8 0.5,-1.7 0.3,-0.9 1,-2.8 2,-5.7 h 1.4 l -3.2,8.6 z"
   id="path44" />
			<path
   class="st5"
   d="m 128.1,264 -0.3,-1.2 h -0.1 c -0.4,0.5 -0.9,0.9 -1.3,1.1 -0.4,0.2 -1,0.3 -1.6,0.3 -0.8,0 -1.5,-0.2 -2,-0.7 -0.5,-0.4 -0.7,-1.1 -0.7,-1.9 0,-1.7 1.4,-2.6 4.1,-2.7 h 1.5 v -0.5 c 0,-0.7 -0.1,-1.2 -0.4,-1.5 -0.3,-0.3 -0.8,-0.5 -1.4,-0.5 -0.7,0 -1.5,0.2 -2.4,0.7 l -0.4,-1 c 0.4,-0.2 0.9,-0.4 1.4,-0.5 0.5,-0.1 1,-0.2 1.5,-0.2 1,0 1.8,0.2 2.3,0.7 0.5,0.5 0.7,1.2 0.7,2.2 v 5.8 h -0.9 z m -2.9,-0.9 c 0.8,0 1.4,-0.2 1.9,-0.7 0.5,-0.5 0.7,-1.1 0.7,-1.9 v -0.8 l -1.3,0.1 c -1,0 -1.8,0.2 -2.2,0.5 -0.5,0.3 -0.7,0.7 -0.7,1.3 0,0.5 0.1,0.8 0.4,1.1 0.3,0.2 0.7,0.4 1.2,0.4 z"
   id="path46" />
			<path
   class="st5"
   d="m 142.5,260.9 c 0,1 -0.4,1.8 -1.1,2.4 -0.7,0.6 -1.7,0.8 -3,0.8 -1.4,0 -2.4,-0.2 -3.1,-0.5 v -1.3 c 0.5,0.2 1,0.4 1.5,0.5 0.6,0.1 1.1,0.2 1.6,0.2 0.9,0 1.6,-0.2 2,-0.5 0.4,-0.3 0.7,-0.8 0.7,-1.4 0,-0.4 -0.1,-0.7 -0.2,-1 -0.2,-0.3 -0.4,-0.5 -0.8,-0.7 -0.4,-0.2 -0.9,-0.5 -1.7,-0.7 -1.1,-0.4 -1.8,-0.8 -2.3,-1.4 -0.5,-0.5 -0.7,-1.2 -0.7,-2 0,-0.9 0.3,-1.6 1,-2.1 0.7,-0.5 1.5,-0.8 2.6,-0.8 1.1,0 2.2,0.2 3.1,0.6 l -0.4,1.2 c -0.9,-0.4 -1.9,-0.6 -2.7,-0.6 -0.7,0 -1.3,0.2 -1.6,0.5 -0.3,0.3 -0.6,0.7 -0.6,1.3 0,0.4 0.1,0.7 0.2,1 0.1,0.3 0.4,0.5 0.7,0.7 0.3,0.2 0.9,0.4 1.6,0.7 1.2,0.4 2,0.9 2.5,1.4 0.5,0.3 0.7,1 0.7,1.7 z"
   id="path48" />
			<path
   class="st5"
   d="m 148.3,264.1 c -1.3,0 -2.3,-0.4 -3,-1.2 -0.7,-0.8 -1.1,-1.8 -1.1,-3.2 0,-1.4 0.3,-2.5 1,-3.3 0.7,-0.8 1.6,-1.2 2.7,-1.2 1.1,0 1.9,0.4 2.5,1.1 0.6,0.7 0.9,1.6 0.9,2.8 v 0.8 h -5.9 c 0,1 0.3,1.8 0.8,2.3 0.5,0.5 1.2,0.8 2,0.8 0.9,0 1.8,-0.2 2.7,-0.6 v 1.2 c -0.5,0.2 -0.9,0.3 -1.3,0.4 -0.2,0.1 -0.7,0.1 -1.3,0.1 z m -0.4,-7.7 c -0.7,0 -1.2,0.2 -1.6,0.7 -0.4,0.4 -0.6,1.1 -0.7,1.9 h 4.5 c 0,-0.8 -0.2,-1.4 -0.5,-1.9 -0.5,-0.5 -1,-0.7 -1.7,-0.7 z"
   id="path50" />
			<path
   class="st5"
   d="m 157.5,255.3 c 0.4,0 0.7,0 1,0.1 l -0.2,1.2 c -0.4,-0.1 -0.7,-0.1 -0.9,-0.1 -0.7,0 -1.3,0.3 -1.8,0.8 -0.5,0.6 -0.7,1.3 -0.7,2.1 v 4.6 h -1.3 v -8.6 h 1.1 l 0.1,1.6 h 0.1 c 0.3,-0.6 0.7,-1 1.1,-1.3 0.5,-0.3 1,-0.4 1.5,-0.4 z"
   id="path52" />
			<path
   class="st5"
   d="m 162,264 -3.2,-8.6 h 1.4 l 1.8,5.1 c 0.4,1.2 0.7,2 0.7,2.3 h 0.1 c 0.1,-0.3 0.2,-0.8 0.5,-1.7 0.3,-0.9 1,-2.8 2,-5.7 h 1.4 l -3.2,8.6 z"
   id="path54" />
			<path
   class="st5"
   d="m 169.5,264 h -1.3 v -12.1 h 1.3 z"
   id="path56" />
			<path
   class="st5"
   d="m 175.8,264.1 c -1.3,0 -2.3,-0.4 -3,-1.2 -0.7,-0.8 -1.1,-1.8 -1.1,-3.2 0,-1.4 0.3,-2.5 1,-3.3 0.7,-0.8 1.6,-1.2 2.7,-1.2 1.1,0 1.9,0.4 2.5,1.1 0.6,0.7 0.9,1.6 0.9,2.8 v 0.8 h -5.9 c 0,1 0.3,1.8 0.8,2.3 0.5,0.5 1.2,0.8 2,0.8 0.9,0 1.8,-0.2 2.7,-0.6 v 1.2 c -0.5,0.2 -0.9,0.3 -1.3,0.4 -0.2,0.1 -0.7,0.1 -1.3,0.1 z m -0.3,-7.7 c -0.7,0 -1.2,0.2 -1.6,0.7 -0.4,0.4 -0.6,1.1 -0.7,1.9 h 4.5 c 0,-0.8 -0.2,-1.4 -0.5,-1.9 -0.5,-0.5 -1,-0.7 -1.7,-0.7 z"
   id="path58" />
			<path
   class="st5"
   d="m 183.9,263.1 c 0.2,0 0.5,0 0.7,-0.1 0.2,0 0.4,-0.1 0.5,-0.1 v 1 c -0.1,0.1 -0.3,0.1 -0.6,0.2 -0.3,0 -0.5,0.1 -0.7,0.1 -1.7,0 -2.5,-0.9 -2.5,-2.6 v -5.1 h -1.2 v -0.6 l 1.2,-0.5 0.5,-1.8 h 0.7 v 2 h 2.5 v 1 h -2.5 v 5 c 0,0.5 0.1,0.9 0.4,1.2 0.3,0.1 0.6,0.3 1,0.3 z"
   id="path60" />
		</g>
		<g
   id="g72">
			<path
   class="st5"
   d="m 303.7,263.2 c 0,-0.3 0.1,-0.6 0.2,-0.8 0.2,-0.2 0.4,-0.3 0.7,-0.3 0.3,0 0.5,0.1 0.7,0.3 0.2,0.2 0.3,0.4 0.3,0.8 0,0.3 -0.1,0.6 -0.3,0.8 -0.2,0.2 -0.4,0.3 -0.7,0.3 -0.3,0 -0.5,-0.1 -0.7,-0.2 -0.1,-0.3 -0.2,-0.6 -0.2,-0.9 z"
   id="path64" />
			<path
   class="st5"
   d="m 317.3,264 h -1.5 l -6.2,-9.6 h -0.1 c 0.1,1.1 0.1,2.2 0.1,3.1 v 6.5 h -1.2 v -11.4 h 1.5 l 6.2,9.5 h 0.1 c 0,-0.1 0,-0.6 -0.1,-1.4 0,-0.8 0,-1.3 0,-1.6 v -6.6 h 1.2 z"
   id="path66" />
			<path
   class="st5"
   d="m 326.8,264 h -6.4 v -11.4 h 6.4 v 1.2 h -5 v 3.7 h 4.7 v 1.2 h -4.7 v 4.2 h 5 z"
   id="path68" />
			<path
   class="st5"
   d="m 332.8,264 h -1.3 v -10.2 h -3.6 v -1.2 h 8.6 v 1.2 h -3.6 V 264 Z"
   id="path70" />
		</g>
		<g
   id="g88">
			<path
   class="st5"
   d="M 464.5,264 H 463 l -6.2,-9.6 h -0.1 c 0.1,1.1 0.1,2.2 0.1,3.1 v 6.5 h -1.2 v -11.4 h 1.5 l 6.2,9.5 h 0.1 c 0,-0.1 0,-0.6 -0.1,-1.4 0,-0.8 0,-1.3 0,-1.6 v -6.6 h 1.2 z"
   id="path74" />
			<path
   class="st5"
   d="m 474.9,259.7 c 0,1.4 -0.4,2.5 -1.1,3.3 -0.7,0.8 -1.7,1.2 -2.9,1.2 -0.8,0 -1.4,-0.2 -2,-0.5 -0.6,-0.4 -1.1,-0.9 -1.4,-1.5 -0.3,-0.7 -0.5,-1.5 -0.5,-2.4 0,-1.4 0.3,-2.5 1,-3.3 0.7,-0.8 1.7,-1.2 2.9,-1.2 1.2,0 2.1,0.4 2.9,1.2 0.7,0.8 1.1,1.8 1.1,3.2 z m -6.6,0 c 0,1.1 0.2,1.9 0.7,2.5 0.4,0.6 1.1,0.9 1.9,0.9 0.8,0 1.5,-0.3 1.9,-0.9 0.4,-0.6 0.7,-1.4 0.7,-2.5 0,-1.1 -0.2,-1.9 -0.7,-2.5 -0.4,-0.6 -1.1,-0.8 -1.9,-0.8 -0.8,0 -1.5,0.3 -1.9,0.8 -0.4,0.5 -0.7,1.4 -0.7,2.5 z"
   id="path76" />
			<path
   class="st5"
   d="m 483,262.8 v 0 c -0.7,0.9 -1.6,1.3 -2.8,1.3 -1.1,0 -2,-0.4 -2.6,-1.1 -0.6,-0.8 -0.9,-1.9 -0.9,-3.3 0,-1.4 0.3,-2.5 0.9,-3.3 0.6,-0.8 1.5,-1.2 2.6,-1.2 1.2,0 2.1,0.4 2.7,1.3 h 0.1 l -0.1,-0.6 v -0.6 -3.5 h 1.3 V 264 h -1.1 z m -2.6,0.3 c 0.9,0 1.5,-0.2 1.9,-0.7 0.4,-0.5 0.6,-1.3 0.6,-2.3 v -0.3 c 0,-1.2 -0.2,-2.1 -0.6,-2.6 -0.4,-0.5 -1,-0.8 -1.9,-0.8 -0.8,0 -1.3,0.3 -1.7,0.9 -0.4,0.6 -0.6,1.4 -0.6,2.5 0,1.1 0.2,1.9 0.6,2.5 0.3,0.5 0.9,0.8 1.7,0.8 z"
   id="path78" />
			<path
   class="st5"
   d="m 490.5,264.1 c -1.3,0 -2.3,-0.4 -3,-1.2 -0.7,-0.8 -1.1,-1.8 -1.1,-3.2 0,-1.4 0.3,-2.5 1,-3.3 0.7,-0.8 1.6,-1.2 2.7,-1.2 1.1,0 1.9,0.4 2.5,1.1 0.6,0.7 0.9,1.6 0.9,2.8 v 0.8 h -5.9 c 0,1 0.3,1.8 0.8,2.3 0.5,0.5 1.2,0.8 2,0.8 0.9,0 1.8,-0.2 2.7,-0.6 v 1.2 c -0.5,0.2 -0.9,0.3 -1.3,0.4 -0.2,0.1 -0.7,0.1 -1.3,0.1 z m -0.3,-7.7 c -0.7,0 -1.2,0.2 -1.6,0.7 -0.4,0.4 -0.6,1.1 -0.7,1.9 h 4.5 c 0,-0.8 -0.2,-1.4 -0.5,-1.9 -0.5,-0.5 -1,-0.7 -1.7,-0.7 z"
   id="path80" />
			<path
   class="st5"
   d="m 495.7,263.2 c 0,-0.3 0.1,-0.6 0.2,-0.8 0.2,-0.2 0.4,-0.3 0.7,-0.3 0.3,0 0.5,0.1 0.7,0.3 0.2,0.2 0.3,0.4 0.3,0.8 0,0.3 -0.1,0.6 -0.3,0.8 -0.2,0.2 -0.4,0.3 -0.7,0.3 -0.3,0 -0.5,-0.1 -0.7,-0.2 -0.1,-0.3 -0.2,-0.6 -0.2,-0.9 z"
   id="path82" />
			<path
   class="st5"
   d="m 499.1,267.8 c -0.5,0 -0.9,-0.1 -1.2,-0.2 v -1.1 c 0.4,0.1 0.7,0.2 1.1,0.2 0.4,0 0.7,-0.1 0.9,-0.3 0.2,-0.2 0.3,-0.6 0.3,-1 v -10 h 1.3 v 9.9 c -0.1,1.7 -0.8,2.5 -2.4,2.5 z m 0.9,-14.7 c 0,-0.3 0.1,-0.5 0.2,-0.7 0.1,-0.1 0.3,-0.2 0.5,-0.2 0.2,0 0.4,0.1 0.5,0.2 0.2,0.1 0.2,0.4 0.2,0.6 0,0.2 -0.1,0.5 -0.2,0.7 -0.2,0.1 -0.3,0.2 -0.5,0.2 -0.2,0 -0.4,-0.1 -0.5,-0.2 -0.1,-0.1 -0.2,-0.3 -0.2,-0.6 z"
   id="path84" />
			<path
   class="st5"
   d="m 509.7,261.7 c 0,0.8 -0.3,1.4 -0.9,1.8 -0.6,0.4 -1.4,0.6 -2.5,0.6 -1.1,0 -2,-0.2 -2.7,-0.5 v -1.2 c 0.4,0.2 0.9,0.4 1.3,0.5 0.5,0.1 0.9,0.2 1.4,0.2 0.7,0 1.2,-0.1 1.6,-0.3 0.4,-0.2 0.5,-0.5 0.5,-1 0,-0.3 -0.1,-0.6 -0.4,-0.9 -0.3,-0.2 -0.9,-0.5 -1.7,-0.8 -0.8,-0.3 -1.4,-0.6 -1.7,-0.8 -0.3,-0.2 -0.6,-0.5 -0.8,-0.8 -0.2,-0.3 -0.2,-0.6 -0.2,-1 0,-0.7 0.3,-1.2 0.9,-1.7 0.6,-0.5 1.3,-0.6 2.3,-0.6 0.9,0 1.8,0.2 2.7,0.6 l -0.5,1.1 c -0.9,-0.4 -1.6,-0.5 -2.3,-0.5 -0.6,0 -1.1,0.1 -1.4,0.3 -0.3,0.2 -0.5,0.5 -0.5,0.8 0,0.2 0.1,0.4 0.2,0.6 0.1,0.2 0.3,0.3 0.6,0.5 0.3,0.1 0.8,0.4 1.5,0.6 1,0.4 1.7,0.7 2.1,1.1 0.3,0.3 0.5,0.8 0.5,1.4 z"
   id="path86" />
		</g>
	</g><g
   id="g1019"><path
     class="st2"
     d="m 134.2,189.5 h -7.7 v -1.4 l 2.9,-3 c 0.9,-0.9 1.4,-1.5 1.7,-1.9 0.3,-0.4 0.5,-0.7 0.6,-1 0.1,-0.3 0.2,-0.7 0.2,-1.1 0,-0.5 -0.2,-0.9 -0.5,-1.2 -0.3,-0.3 -0.7,-0.4 -1.3,-0.4 -0.4,0 -0.9,0.1 -1.3,0.2 -0.4,0.2 -0.9,0.5 -1.4,0.9 l -1,-1.2 c 0.6,-0.5 1.3,-0.9 1.9,-1.1 0.6,-0.2 1.2,-0.3 1.9,-0.3 1.1,0 1.9,0.3 2.6,0.8 0.6,0.6 1,1.3 1,2.2 0,0.5 -0.1,1 -0.3,1.5 -0.2,0.5 -0.5,0.9 -0.9,1.4 -0.4,0.5 -1,1.2 -1.9,2 l -2,1.9 v 0.1 h 5.4 v 1.6 z"
     id="path92" /><path
     class="st2"
     d="m 147.74121,189.5 h -7.7 v -1.4 l 2.9,-3 c 0.9,-0.9 1.4,-1.5 1.7,-1.9 0.3,-0.4 0.5,-0.7 0.6,-1 0.1,-0.3 0.2,-0.7 0.2,-1.1 0,-0.5 -0.2,-0.9 -0.5,-1.2 -0.3,-0.3 -0.7,-0.4 -1.3,-0.4 -0.4,0 -0.9,0.1 -1.3,0.2 -0.4,0.2 -0.9,0.5 -1.4,0.9 l -1,-1.2 c 0.6,-0.5 1.3,-0.9 1.9,-1.1 0.6,-0.2 1.2,-0.3 1.9,-0.3 1.1,0 1.9,0.3 2.6,0.8 0.6,0.6 1,1.3 1,2.2 0,0.5 -0.1,1 -0.3,1.5 -0.2,0.5 -0.5,0.9 -0.9,1.4 -0.4,0.5 -1,1.2 -1.9,2 l -2,1.9 v 0.1 h 5.4 v 1.6 z"
     id="path92-9"
     style="fill:#ffffff" /><path
     class="st2"
     d="m 135.9,188.5 c 0,-0.4 0.1,-0.7 0.3,-0.9 0.2,-0.2 0.5,-0.3 0.9,-0.3 0.4,0 0.7,0.1 0.9,0.3 0.2,0.2 0.3,0.5 0.3,0.9 0,0.4 -0.1,0.7 -0.3,0.9 -0.2,0.2 -0.5,0.3 -0.9,0.3 -0.4,0 -0.7,-0.1 -0.9,-0.3 -0.2,-0.2 -0.3,-0.5 -0.3,-0.9 z"
     id="path94" /><path
     class="st2"
     d="m 163.9,189.5 -3.3,-9.5 h -0.1 c 0.1,1.4 0.1,2.7 0.1,4 v 5.5 H 159 v -11.4 h 2.6 l 3.2,9.1 v 0 l 3.3,-9.1 h 2.6 v 11.4 h -1.8 v -5.6 c 0,-0.6 0,-1.3 0,-2.2 0,-0.9 0.1,-1.5 0.1,-1.7 v 0 l -3.4,9.5 z"
     id="path100" /><path
     class="st2"
     d="m 114.2,197.3 c 0.3,0 0.5,0 0.8,0.1 l -0.1,0.9 c -0.3,-0.1 -0.5,-0.1 -0.7,-0.1 -0.5,0 -1,0.2 -1.3,0.6 -0.4,0.4 -0.6,0.9 -0.6,1.6 v 3.4 h -1 v -6.4 h 0.8 l 0.1,1.2 v 0 c 0.2,-0.4 0.5,-0.7 0.9,-1 0.3,-0.1 0.7,-0.3 1.1,-0.3 z"
     id="path102" /><path
     class="st2"
     d="m 118.9,204 c -0.9,0 -1.7,-0.3 -2.2,-0.9 -0.5,-0.6 -0.8,-1.4 -0.8,-2.4 0,-1 0.3,-1.9 0.8,-2.5 0.5,-0.6 1.2,-0.9 2.1,-0.9 0.8,0 1.4,0.3 1.9,0.8 0.5,0.5 0.7,1.2 0.7,2.1 v 0.6 H 117 c 0,0.8 0.2,1.3 0.6,1.7 0.4,0.4 0.9,0.6 1.5,0.6 0.7,0 1.4,-0.1 2,-0.4 v 0.9 c -0.3,0.1 -0.7,0.3 -1,0.3 -0.4,0.1 -0.8,0.1 -1.2,0.1 z m -0.3,-5.8 c -0.5,0 -0.9,0.2 -1.2,0.5 -0.3,0.3 -0.5,0.8 -0.5,1.4 h 3.4 c 0,-0.6 -0.1,-1.1 -0.4,-1.4 -0.4,-0.4 -0.8,-0.5 -1.3,-0.5 z"
     id="path104" /><path
     class="st2"
     d="m 125.2,204 c -0.8,0 -1.5,-0.3 -1.9,-0.9 -0.5,-0.6 -0.7,-1.4 -0.7,-2.4 0,-1 0.2,-1.9 0.7,-2.5 0.5,-0.6 1.1,-0.9 2,-0.9 0.9,0 1.6,0.3 2,1 h 0.1 l 0.1,-0.9 h 0.8 v 9.3 h -1 V 204 c 0,-0.4 0,-0.7 0.1,-1 h -0.1 c -0.6,0.7 -1.2,1 -2.1,1 z m 0.1,-0.8 c 0.6,0 1.1,-0.2 1.4,-0.5 0.3,-0.3 0.5,-0.9 0.5,-1.8 v -0.2 c 0,-0.9 -0.2,-1.5 -0.5,-1.9 -0.3,-0.4 -0.8,-0.6 -1.4,-0.6 -0.6,0 -1,0.2 -1.3,0.7 -0.3,0.4 -0.5,1.1 -0.5,1.9 0,0.8 0.1,1.4 0.4,1.8 0.4,0.4 0.8,0.6 1.4,0.6 z"
     id="path106" /><path
     class="st2"
     d="m 131.1,197.5 v 4.2 c 0,0.5 0.1,0.9 0.4,1.2 0.2,0.3 0.6,0.4 1.1,0.4 0.7,0 1.2,-0.2 1.5,-0.6 0.3,-0.4 0.5,-1 0.5,-1.8 v -3.4 h 1 v 6.4 h -0.8 l -0.1,-0.9 h -0.1 c -0.2,0.3 -0.5,0.6 -0.8,0.7 -0.4,0.2 -0.8,0.3 -1.2,0.3 -0.8,0 -1.4,-0.2 -1.8,-0.6 -0.4,-0.4 -0.6,-1 -0.6,-1.8 v -4.2 h 0.9 z"
     id="path108" /><path
     class="st2"
     d="m 140.3,204 c -0.9,0 -1.7,-0.3 -2.2,-0.9 -0.5,-0.6 -0.8,-1.4 -0.8,-2.4 0,-1 0.3,-1.9 0.8,-2.5 0.5,-0.6 1.2,-0.9 2.1,-0.9 0.8,0 1.4,0.3 1.9,0.8 0.5,0.5 0.7,1.2 0.7,2.1 v 0.6 h -4.4 c 0,0.8 0.2,1.3 0.6,1.7 0.4,0.4 0.9,0.6 1.5,0.6 0.7,0 1.4,-0.1 2,-0.4 v 0.9 c -0.3,0.1 -0.7,0.3 -1,0.3 -0.4,0.1 -0.8,0.1 -1.2,0.1 z m -0.3,-5.8 c -0.5,0 -0.9,0.2 -1.2,0.5 -0.3,0.3 -0.5,0.8 -0.5,1.4 h 3.4 c 0,-0.6 -0.1,-1.1 -0.4,-1.4 -0.4,-0.4 -0.8,-0.5 -1.3,-0.5 z"
     id="path110" /><path
     class="st2"
     d="m 148.4,202.1 c 0,0.6 -0.2,1.1 -0.7,1.4 -0.4,0.3 -1.1,0.5 -1.9,0.5 -0.9,0 -1.5,-0.1 -2,-0.4 v -0.9 c 0.3,0.2 0.6,0.3 1,0.4 0.4,0.1 0.7,0.1 1,0.1 0.5,0 0.9,-0.1 1.2,-0.2 0.3,-0.1 0.4,-0.4 0.4,-0.7 0,-0.2 -0.1,-0.5 -0.3,-0.6 -0.2,-0.2 -0.6,-0.4 -1.3,-0.6 -0.6,-0.2 -1,-0.4 -1.3,-0.6 -0.3,-0.2 -0.4,-0.4 -0.6,-0.6 -0.1,-0.2 -0.2,-0.5 -0.2,-0.8 0,-0.5 0.2,-0.9 0.6,-1.2 0.4,-0.3 1,-0.5 1.8,-0.5 0.7,0 1.4,0.1 2,0.4 l -0.3,0.8 c -0.6,-0.3 -1.2,-0.4 -1.8,-0.4 -0.5,0 -0.8,0.1 -1,0.2 -0.2,0.1 -0.4,0.3 -0.4,0.6 0,0.2 0,0.3 0.1,0.4 0.1,0.1 0.2,0.2 0.4,0.3 0.2,0.1 0.6,0.3 1.1,0.5 0.8,0.3 1.3,0.6 1.5,0.8 0.2,0.2 0.7,0.7 0.7,1.1 z"
     id="path112" /><path
     class="st2"
     d="m 152.1,203.2 c 0.2,0 0.3,0 0.5,0 0.2,0 0.3,-0.1 0.4,-0.1 v 0.7 c -0.1,0.1 -0.3,0.1 -0.5,0.1 -0.2,0 -0.4,0 -0.6,0 -1.2,0 -1.9,-0.7 -1.9,-2 v -3.8 h -0.9 v -0.5 l 0.9,-0.4 0.4,-1.4 h 0.6 v 1.5 h 1.9 v 0.8 H 151 v 3.8 c 0,0.4 0.1,0.7 0.3,0.9 0.2,0.2 0.5,0.4 0.8,0.4 z"
     id="path114" /><path
     class="st2"
     d="m 158.4,202.1 c 0,0.6 -0.2,1.1 -0.7,1.4 -0.4,0.3 -1.1,0.5 -1.9,0.5 -0.9,0 -1.5,-0.1 -2,-0.4 v -0.9 c 0.3,0.2 0.6,0.3 1,0.4 0.4,0.1 0.7,0.1 1,0.1 0.5,0 0.9,-0.1 1.2,-0.2 0.3,-0.1 0.4,-0.4 0.4,-0.7 0,-0.2 -0.1,-0.5 -0.3,-0.6 -0.2,-0.2 -0.6,-0.4 -1.3,-0.6 -0.6,-0.2 -1,-0.4 -1.3,-0.6 -0.3,-0.2 -0.4,-0.4 -0.6,-0.6 -0.1,-0.2 -0.2,-0.5 -0.2,-0.8 0,-0.5 0.2,-0.9 0.6,-1.2 0.4,-0.3 1,-0.5 1.8,-0.5 0.7,0 1.4,0.1 2,0.4 l -0.3,0.8 c -0.6,-0.3 -1.2,-0.4 -1.8,-0.4 -0.5,0 -0.8,0.1 -1,0.2 -0.2,0.1 -0.4,0.3 -0.4,0.6 0,0.2 0,0.3 0.1,0.4 0.1,0.1 0.2,0.2 0.4,0.3 0.2,0.1 0.6,0.3 1.1,0.5 0.8,0.3 1.3,0.6 1.5,0.8 0.2,0.2 0.7,0.7 0.7,1.1 z"
     id="path116" /><path
     class="st2"
     d="m 166.3,195.3 -3.2,8.6 h -1 l 3.2,-8.6 z"
     id="path118" /><path
     class="st2"
     d="m 174.7,202.1 c 0,0.6 -0.2,1.1 -0.7,1.4 -0.4,0.3 -1.1,0.5 -1.9,0.5 -0.9,0 -1.5,-0.1 -2,-0.4 v -0.9 c 0.3,0.2 0.6,0.3 1,0.4 0.4,0.1 0.7,0.1 1,0.1 0.5,0 0.9,-0.1 1.2,-0.2 0.3,-0.1 0.4,-0.4 0.4,-0.7 0,-0.2 -0.1,-0.5 -0.3,-0.6 -0.2,-0.2 -0.6,-0.4 -1.3,-0.6 -0.6,-0.2 -1,-0.4 -1.3,-0.6 -0.3,-0.2 -0.4,-0.4 -0.6,-0.6 -0.1,-0.2 -0.2,-0.5 -0.2,-0.8 0,-0.5 0.2,-0.9 0.6,-1.2 0.4,-0.3 1,-0.5 1.8,-0.5 0.7,0 1.4,0.1 2,0.4 l -0.3,0.8 c -0.6,-0.3 -1.2,-0.4 -1.8,-0.4 -0.5,0 -0.8,0.1 -1,0.2 -0.2,0.1 -0.4,0.3 -0.4,0.6 0,0.2 0,0.3 0.1,0.4 0.1,0.1 0.2,0.2 0.4,0.3 0.2,0.1 0.6,0.3 1.1,0.5 0.8,0.3 1.3,0.6 1.5,0.8 0.2,0.2 0.7,0.7 0.7,1.1 z"
     id="path120" /><path
     class="st2"
     d="m 179,204 c -0.9,0 -1.7,-0.3 -2.2,-0.9 -0.5,-0.6 -0.8,-1.4 -0.8,-2.4 0,-1 0.3,-1.9 0.8,-2.5 0.5,-0.6 1.2,-0.9 2.1,-0.9 0.8,0 1.4,0.3 1.9,0.8 0.5,0.5 0.7,1.2 0.7,2.1 v 0.6 H 177 c 0,0.8 0.2,1.3 0.6,1.7 0.4,0.4 0.9,0.6 1.5,0.6 0.7,0 1.4,-0.1 2,-0.4 v 0.9 c -0.3,0.1 -0.7,0.3 -1,0.3 -0.3,0.1 -0.6,0.1 -1.1,0.1 z m -0.2,-5.8 c -0.5,0 -0.9,0.2 -1.2,0.5 -0.3,0.3 -0.5,0.8 -0.5,1.4 h 3.4 c 0,-0.6 -0.1,-1.1 -0.4,-1.4 -0.4,-0.4 -0.8,-0.5 -1.3,-0.5 z"
     id="path122" /><path
     class="st2"
     d="m 185.6,204 c -0.9,0 -1.6,-0.3 -2.2,-0.9 -0.5,-0.6 -0.8,-1.4 -0.8,-2.4 0,-1.1 0.3,-1.9 0.8,-2.5 0.5,-0.6 1.3,-0.9 2.2,-0.9 0.3,0 0.6,0 0.9,0.1 0.3,0.1 0.6,0.1 0.7,0.2 l -0.3,0.8 c -0.2,-0.1 -0.4,-0.2 -0.7,-0.2 -0.3,-0.1 -0.5,-0.1 -0.7,-0.1 -1.3,0 -2,0.8 -2,2.5 0,0.8 0.2,1.4 0.5,1.8 0.3,0.4 0.8,0.6 1.4,0.6 0.5,0 1.1,-0.1 1.6,-0.3 v 0.9 c -0.2,0.3 -0.7,0.4 -1.4,0.4 z"
     id="path124" /></g><g
   id="g755"><path
     class="st2"
     d="m 489.5,183.7 c 0,2 -0.3,3.5 -1,4.4 -0.7,0.9 -1.6,1.4 -2.9,1.4 -1.3,0 -2.2,-0.5 -2.9,-1.5 -0.7,-1 -1,-2.5 -1,-4.4 0,-2 0.3,-3.5 1,-4.5 0.6,-1 1.6,-1.4 2.9,-1.4 1.3,0 2.2,0.5 2.9,1.5 0.7,1.1 1,2.5 1,4.5 z m -5.9,0 c 0,1.6 0.2,2.7 0.5,3.3 0.3,0.6 0.8,1 1.5,1 0.7,0 1.2,-0.3 1.5,-1 0.3,-0.7 0.5,-1.8 0.5,-3.3 0,-1.5 -0.2,-2.6 -0.5,-3.3 -0.3,-0.7 -0.8,-1 -1.5,-1 -0.7,0 -1.2,0.3 -1.5,1 -0.3,0.6 -0.5,1.7 -0.5,3.3 z"
     id="path128-1"
     style="fill:#ffffff" /><path
     class="st2"
     d="m 468.5,188.4 c 0,-0.4 0.1,-0.7 0.3,-0.9 0.2,-0.2 0.5,-0.3 0.9,-0.3 0.4,0 0.7,0.1 0.9,0.3 0.2,0.2 0.3,0.5 0.3,0.9 0,0.4 -0.1,0.7 -0.3,0.9 -0.2,0.2 -0.5,0.3 -0.9,0.3 -0.4,0 -0.7,-0.1 -0.9,-0.3 -0.2,-0.2 -0.3,-0.5 -0.3,-0.9 z"
     id="path130" /><path
     class="st2"
     d="m 472.5,184.5 c 0,-4.5 1.8,-6.7 5.5,-6.7 0.6,0 1.1,0 1.5,0.1 v 1.5 c -0.4,-0.1 -0.9,-0.2 -1.4,-0.2 -1.2,0 -2.1,0.3 -2.8,1 -0.6,0.7 -0.9,1.7 -1,3.2 h 0.1 c 0.2,-0.4 0.6,-0.7 1,-1 0.4,-0.3 1,-0.3 1.6,-0.3 1,0 1.8,0.3 2.4,1 0.6,0.6 0.9,1.5 0.9,2.6 0,1.2 -0.3,2.1 -1,2.8 -0.7,0.7 -1.6,1 -2.7,1 -0.8,0 -1.5,-0.2 -2.1,-0.6 -0.6,-0.4 -1.1,-1 -1.4,-1.7 -0.3,-0.7 -0.6,-1.6 -0.6,-2.7 z m 4,3.5 c 0.6,0 1.1,-0.2 1.5,-0.6 0.3,-0.4 0.5,-1 0.5,-1.7 0,-0.7 -0.2,-1.2 -0.5,-1.5 -0.3,-0.4 -0.8,-0.6 -1.4,-0.6 -0.4,0 -0.8,0.1 -1.1,0.3 -0.3,0.2 -0.6,0.4 -0.8,0.7 -0.2,0.3 -0.3,0.6 -0.3,0.9 0,0.7 0.2,1.4 0.6,1.9 0.4,0.4 0.9,0.6 1.5,0.6 z"
     id="path132" /><path
     class="st2"
     d="m 446.8,197.2 c 0.3,0 0.5,0 0.8,0.1 l -0.1,0.9 c -0.3,-0.1 -0.5,-0.1 -0.7,-0.1 -0.5,0 -1,0.2 -1.3,0.6 -0.4,0.4 -0.6,0.9 -0.6,1.6 v 3.4 h -1 v -6.4 h 0.8 l 0.1,1.2 v 0 c 0.2,-0.4 0.5,-0.7 0.9,-1 0.4,-0.3 0.7,-0.3 1.1,-0.3 z"
     id="path138" /><path
     class="st2"
     d="m 451.4,203.9 c -0.9,0 -1.7,-0.3 -2.2,-0.9 -0.5,-0.6 -0.8,-1.4 -0.8,-2.4 0,-1 0.3,-1.9 0.8,-2.5 0.5,-0.6 1.2,-0.9 2.1,-0.9 0.8,0 1.4,0.3 1.9,0.8 0.5,0.5 0.7,1.2 0.7,2.1 v 0.6 h -4.4 c 0,0.8 0.2,1.3 0.6,1.7 0.4,0.4 0.9,0.6 1.5,0.6 0.7,0 1.4,-0.1 2,-0.4 v 0.9 c -0.3,0.1 -0.7,0.3 -1,0.3 -0.4,0.1 -0.7,0.1 -1.2,0.1 z m -0.2,-5.9 c -0.5,0 -0.9,0.2 -1.2,0.5 -0.3,0.3 -0.5,0.8 -0.5,1.4 h 3.4 c 0,-0.6 -0.1,-1.1 -0.4,-1.4 -0.4,-0.3 -0.8,-0.5 -1.3,-0.5 z"
     id="path140" /><path
     class="st2"
     d="m 457.7,203.9 c -0.8,0 -1.5,-0.3 -1.9,-0.9 -0.5,-0.6 -0.7,-1.4 -0.7,-2.4 0,-1 0.2,-1.9 0.7,-2.5 0.5,-0.6 1.1,-0.9 2,-0.9 0.9,0 1.6,0.3 2,1 h 0.1 l 0.1,-0.9 h 0.8 v 9.3 h -1 v -2.7 c 0,-0.4 0,-0.7 0.1,-1 h -0.1 c -0.5,0.7 -1.2,1 -2.1,1 z m 0.2,-0.8 c 0.6,0 1.1,-0.2 1.4,-0.5 0.3,-0.3 0.5,-0.9 0.5,-1.8 v -0.2 c 0,-0.9 -0.2,-1.5 -0.5,-1.9 -0.3,-0.4 -0.8,-0.6 -1.4,-0.6 -0.6,0 -1,0.2 -1.3,0.7 -0.3,0.4 -0.5,1.1 -0.5,1.9 0,0.8 0.1,1.4 0.4,1.8 0.3,0.4 0.8,0.6 1.4,0.6 z"
     id="path142" /><path
     class="st2"
     d="m 463.7,197.4 v 4.2 c 0,0.5 0.1,0.9 0.4,1.2 0.2,0.3 0.6,0.4 1.1,0.4 0.7,0 1.2,-0.2 1.5,-0.5 0.3,-0.4 0.5,-1 0.5,-1.8 v -3.4 h 1 v 6.4 h -0.8 l -0.1,-0.9 h -0.1 c -0.2,0.3 -0.5,0.6 -0.8,0.7 -0.3,0.1 -0.8,0.3 -1.2,0.3 -0.8,0 -1.4,-0.2 -1.8,-0.6 -0.4,-0.4 -0.6,-1 -0.6,-1.8 v -4.2 z"
     id="path144" /><path
     class="st2"
     d="m 466.7,183.7 c 0,2 -0.3,3.5 -1,4.4 -0.7,0.9 -1.6,1.4 -2.9,1.4 -1.3,0 -2.2,-0.5 -2.9,-1.5 -0.7,-1 -1,-2.5 -1,-4.4 0,-2 0.3,-3.5 1,-4.5 0.6,-1 1.6,-1.4 2.9,-1.4 1.3,0 2.2,0.5 2.9,1.5 0.7,1.1 1,2.5 1,4.5 z m -5.9,0 c 0,1.6 0.2,2.7 0.5,3.3 0.3,0.6 0.8,1 1.5,1 0.7,0 1.2,-0.3 1.5,-1 0.3,-0.7 0.5,-1.8 0.5,-3.3 0,-1.5 -0.2,-2.6 -0.5,-3.3 -0.3,-0.7 -0.8,-1 -1.5,-1 -0.7,0 -1.2,0.3 -1.5,1 -0.3,0.6 -0.5,1.7 -0.5,3.3 z"
     id="path128" /><path
     class="st2"
     d="m 156.83969,183.84746 c 0,1.94915 -0.29237,3.41101 -0.97457,4.28813 -0.6822,0.87712 -1.55932,1.36441 -2.82627,1.36441 -1.26695,0 -2.14407,-0.48729 -2.82627,-1.46186 -0.68221,-0.97458 -0.97458,-2.43645 -0.97458,-4.28814 0,-1.94915 0.29237,-3.41102 0.97458,-4.38559 0.58474,-0.97458 1.55932,-1.36441 2.82627,-1.36441 1.26695,0 2.14407,0.48729 2.82627,1.46186 0.6822,1.07204 0.97457,2.43645 0.97457,4.3856 z m -5.75,0 c 0,1.55932 0.19492,2.63135 0.48729,3.2161 0.29238,0.58475 0.77966,0.97458 1.46187,0.97458 0.6822,0 1.16949,-0.29238 1.46186,-0.97458 0.29237,-0.6822 0.48729,-1.75424 0.48729,-3.2161 0,-1.46187 -0.19492,-2.5339 -0.48729,-3.2161 -0.29237,-0.68221 -0.77966,-0.97458 -1.46186,-0.97458 -0.68221,0 -1.16949,0.29237 -1.46187,0.97458 -0.29237,0.58474 -0.48729,1.65678 -0.48729,3.2161 z"
     id="path128-0"
     style="fill:#ffffff;stroke-width:0.974576" /><path
     class="st2"
     d="m 496.5,189.4 -3.3,-9.5 h -0.1 c 0.1,1.4 0.1,2.7 0.1,4 v 5.6 h -1.7 V 178 h 2.6 l 3.2,9.1 v 0 l 3.3,-9.1 h 2.6 v 11.4 h -1.8 v -5.6 c 0,-0.6 0,-1.3 0,-2.2 0,-0.9 0.1,-1.5 0.1,-1.7 h -0.1 l -3.4,9.5 z"
     id="path136" /><path
     class="st2"
     d="m 472.9,203.9 c -0.9,0 -1.7,-0.3 -2.2,-0.9 -0.5,-0.6 -0.8,-1.4 -0.8,-2.4 0,-1 0.3,-1.9 0.8,-2.5 0.5,-0.6 1.2,-0.9 2.1,-0.9 0.8,0 1.4,0.3 1.9,0.8 0.5,0.5 0.7,1.2 0.7,2.1 v 0.6 H 471 c 0,0.8 0.2,1.3 0.6,1.7 0.4,0.4 0.9,0.6 1.5,0.6 0.7,0 1.4,-0.1 2,-0.4 v 0.9 c -0.3,0.1 -0.7,0.3 -1,0.3 -0.4,0.1 -0.8,0.1 -1.2,0.1 z m -0.3,-5.9 c -0.5,0 -0.9,0.2 -1.2,0.5 -0.3,0.3 -0.5,0.8 -0.5,1.4 h 3.4 c 0,-0.6 -0.1,-1.1 -0.4,-1.4 -0.4,-0.3 -0.8,-0.5 -1.3,-0.5 z"
     id="path146" /><path
     class="st2"
     d="m 481,202 c 0,0.6 -0.2,1.1 -0.7,1.4 -0.4,0.3 -1.1,0.5 -1.9,0.5 -0.9,0 -1.5,-0.1 -2,-0.4 v -0.9 c 0.3,0.2 0.6,0.3 1,0.4 0.4,0.1 0.7,0.1 1,0.1 0.5,0 0.9,-0.1 1.2,-0.2 0.3,-0.2 0.4,-0.4 0.4,-0.7 0,-0.2 -0.1,-0.5 -0.3,-0.6 -0.2,-0.2 -0.6,-0.4 -1.3,-0.6 -0.6,-0.2 -1,-0.4 -1.3,-0.6 -0.3,-0.2 -0.4,-0.4 -0.6,-0.6 -0.1,-0.2 -0.2,-0.5 -0.2,-0.8 0,-0.5 0.2,-0.9 0.6,-1.2 0.4,-0.3 1,-0.5 1.8,-0.5 0.7,0 1.4,0.1 2,0.4 l -0.3,0.8 c -0.6,-0.3 -1.2,-0.4 -1.8,-0.4 -0.5,0 -0.8,0.1 -1,0.2 -0.2,0.1 -0.4,0.3 -0.4,0.6 0,0.2 0,0.3 0.1,0.4 0.1,0.1 0.2,0.2 0.4,0.3 0.2,0.1 0.6,0.3 1.1,0.5 0.8,0.3 1.3,0.6 1.5,0.8 0.6,0.3 0.7,0.7 0.7,1.1 z"
     id="path148" /><path
     class="st2"
     d="m 484.7,203.1 c 0.2,0 0.3,0 0.5,0 0.2,0 0.3,-0.1 0.4,-0.1 v 0.7 c -0.1,0.1 -0.3,0.1 -0.5,0.1 -0.2,0 -0.4,0 -0.6,0 -1.2,0 -1.9,-0.7 -1.9,-2 V 198 h -0.9 v -0.5 l 0.9,-0.4 0.4,-1.4 h 0.6 v 1.5 h 1.9 v 0.8 h -1.9 v 3.8 c 0,0.4 0.1,0.7 0.3,0.9 0.2,0.3 0.5,0.4 0.8,0.4 z"
     id="path150" /><path
     class="st2"
     d="m 491,202 c 0,0.6 -0.2,1.1 -0.7,1.4 -0.4,0.3 -1.1,0.5 -1.9,0.5 -0.9,0 -1.5,-0.1 -2,-0.4 v -0.9 c 0.3,0.2 0.6,0.3 1,0.4 0.4,0.1 0.7,0.1 1,0.1 0.5,0 0.9,-0.1 1.2,-0.2 0.3,-0.2 0.4,-0.4 0.4,-0.7 0,-0.2 -0.1,-0.5 -0.3,-0.6 -0.2,-0.2 -0.6,-0.4 -1.3,-0.6 -0.6,-0.2 -1,-0.4 -1.3,-0.6 -0.3,-0.2 -0.4,-0.4 -0.6,-0.6 -0.1,-0.2 -0.2,-0.5 -0.2,-0.8 0,-0.5 0.2,-0.9 0.6,-1.2 0.4,-0.3 1,-0.5 1.8,-0.5 0.7,0 1.4,0.1 2,0.4 l -0.3,0.8 c -0.6,-0.3 -1.2,-0.4 -1.8,-0.4 -0.5,0 -0.8,0.1 -1,0.2 -0.2,0.1 -0.4,0.3 -0.4,0.6 0,0.2 0,0.3 0.1,0.4 0.1,0.1 0.2,0.2 0.4,0.3 0.2,0.1 0.6,0.3 1.1,0.5 0.8,0.3 1.3,0.6 1.5,0.8 0.5,0.3 0.7,0.7 0.7,1.1 z"
     id="path152" /><path
     class="st2"
     d="m 498.9,195.2 -3.2,8.6 h -1 l 3.2,-8.6 z"
     id="path154" /><path
     class="st2"
     d="m 507.3,202 c 0,0.6 -0.2,1.1 -0.7,1.4 -0.4,0.3 -1.1,0.5 -1.9,0.5 -0.9,0 -1.5,-0.1 -2,-0.4 v -0.9 c 0.3,0.2 0.6,0.3 1,0.4 0.4,0.1 0.7,0.1 1,0.1 0.5,0 0.9,-0.1 1.2,-0.2 0.3,-0.2 0.4,-0.4 0.4,-0.7 0,-0.2 -0.1,-0.5 -0.3,-0.6 -0.2,-0.2 -0.6,-0.4 -1.3,-0.6 -0.6,-0.2 -1,-0.4 -1.3,-0.6 -0.3,-0.2 -0.4,-0.4 -0.6,-0.6 -0.1,-0.2 -0.2,-0.5 -0.2,-0.8 0,-0.5 0.2,-0.9 0.6,-1.2 0.4,-0.3 1,-0.5 1.8,-0.5 0.7,0 1.4,0.1 2,0.4 l -0.3,0.8 c -0.6,-0.3 -1.2,-0.4 -1.8,-0.4 -0.5,0 -0.8,0.1 -1,0.2 -0.2,0.1 -0.4,0.3 -0.4,0.6 0,0.2 0,0.3 0.1,0.4 0.1,0.1 0.2,0.2 0.4,0.3 0.2,0.1 0.6,0.3 1.1,0.5 0.8,0.3 1.3,0.6 1.5,0.8 0.6,0.3 0.7,0.7 0.7,1.1 z"
     id="path156" /><path
     class="st2"
     d="m 511.6,203.9 c -0.9,0 -1.7,-0.3 -2.2,-0.9 -0.5,-0.6 -0.8,-1.4 -0.8,-2.4 0,-1 0.3,-1.9 0.8,-2.5 0.5,-0.6 1.2,-0.9 2.1,-0.9 0.8,0 1.4,0.3 1.9,0.8 0.5,0.5 0.7,1.2 0.7,2.1 v 0.6 h -4.4 c 0,0.8 0.2,1.3 0.6,1.7 0.4,0.4 0.9,0.6 1.5,0.6 0.7,0 1.4,-0.1 2,-0.4 v 0.9 c -0.3,0.1 -0.7,0.3 -1,0.3 -0.4,0.1 -0.7,0.1 -1.2,0.1 z m -0.2,-5.9 c -0.5,0 -0.9,0.2 -1.2,0.5 -0.3,0.3 -0.5,0.8 -0.5,1.4 h 3.4 c 0,-0.6 -0.1,-1.1 -0.4,-1.4 -0.4,-0.3 -0.8,-0.5 -1.3,-0.5 z"
     id="path158" /><path
     class="st2"
     d="m 518.2,203.9 c -0.9,0 -1.6,-0.3 -2.2,-0.9 -0.5,-0.6 -0.8,-1.4 -0.8,-2.4 0,-1.1 0.3,-1.9 0.8,-2.5 0.5,-0.6 1.3,-0.9 2.2,-0.9 0.3,0 0.6,0 0.9,0.1 0.3,0.1 0.5,0.1 0.7,0.2 l -0.3,0.8 c -0.2,-0.1 -0.4,-0.2 -0.7,-0.2 -0.3,0 -0.5,-0.1 -0.7,-0.1 -1.3,0 -2,0.8 -2,2.5 0,0.8 0.2,1.4 0.5,1.8 0.3,0.4 0.8,0.6 1.4,0.6 0.5,0 1.1,-0.1 1.6,-0.3 v 0.9 c -0.2,0.3 -0.7,0.4 -1.4,0.4 z"
     id="path160" /></g><g
   id="g202">
		<path
   class="st6"
   d="m 115.7,127.7 c -3.7,3.8 -6.8,8.3 -9,13.2 v 0 c -1.3,2.8 -2.2,5.8 -2.9,8.9 0,0 0,0 0,0 -0.2,0.7 -0.3,1.4 -0.4,2.2 0,0.1 0,0.1 0,0.2 -0.1,0.7 -0.2,1.3 -0.3,2 0,0.1 0,0.3 -0.1,0.4 -0.1,0.6 -0.1,1.2 -0.1,1.9 0,0.2 0,0.4 0,0.6 0,0.7 -0.1,1.5 -0.1,2.2 0,0.1 0,0.1 0,0.2 0,3.6 0.4,7.2 1.3,10.6 0.2,0.8 0.4,1.7 0.7,2.5 l 13.9,-4.3 c -0.8,-2.7 -1.2,-5.7 -1.3,-8.7 0,0 0,-0.1 0,-0.1 v 0 0 c 0,-0.6 0,-1.1 0,-1.7 0,0 0,-0.1 0,-0.1 0.4,-7.7 3.7,-14.6 8.8,-19.8 z"
   id="path200" />
	</g><g
   id="g206">
		<path
   class="st7"
   d="m 117.2,137.6 c 0,0 10.5,12.8 23.1,27.6 2.5,3.2 6.8,5.2 11.1,3.9 5.2,-1.6 8.1,-7.2 6.5,-12.4 -0.9,-3 -3.1,-5.2 -5.7,-6.3 -0.1,0 -3.6,-1.3 -3.7,-1.3 -3.5,-1.1 -31.3,-11.5 -31.3,-11.5 z"
   id="path204" />
	</g><g
   id="g210">
		<path
   class="st0"
   d="m 152.6,158.4 c -0.7,-2.4 -3.2,-3.7 -5.6,-2.9 -2.3,0.7 -3.6,3.2 -2.9,5.6 0.7,2.4 3.2,3.7 5.6,2.9 2.4,-0.8 3.7,-3.3 2.9,-5.6 z"
   id="path208" />
	</g><g
   id="g214">
		<path
   class="st6"
   d="m 452.8,145.8 c -4.3,-2.1 -8.7,-4.2 -13.1,-6.4 -2.9,6 -4.6,12.7 -4.6,19.8 0,4.5 0.7,8.9 1.9,13.1 l 13.9,-4.3 c -0.8,-2.8 -1.3,-5.7 -1.3,-8.7 0.1,-4.8 1.2,-9.4 3.2,-13.5 z"
   id="path212" />
	</g><g
   id="g218">
		<path
   class="st7"
   d="m 442.7,151.1 c 0,0 16.6,7.7 32.3,16.2 3.6,2.3 8.4,2.1 11.7,-0.8 4.1,-3.6 4.6,-9.8 1,-14 -2,-2.4 -4.9,-3.5 -7.8,-3.5 -0.1,0 -0.2,0 -0.3,0 -3.4,0.2 -36.9,2.1 -36.9,2.1 z"
   id="path216" />
	</g><g
   id="g222">
		<path
   class="st0"
   d="m 483.6,156 c -1.6,-1.9 -4.4,-2.1 -6.3,-0.5 -1.9,1.6 -2.1,4.4 -0.4,6.3 1.6,1.9 4.4,2.1 6.3,0.5 1.8,-1.6 2,-4.4 0.4,-6.3 z"
   id="path220" />
	</g>
<g
   id="g780"><path
     class="st2"
     d="m 283.7,200.3 c 0.3,0 0.5,0 0.8,0.1 l -0.1,0.9 c -0.3,-0.1 -0.5,-0.1 -0.7,-0.1 -0.5,0 -1,0.2 -1.3,0.6 -0.4,0.4 -0.6,0.9 -0.6,1.6 v 3.4 h -1 v -6.4 h 0.8 l 0.1,1.2 v 0 c 0.2,-0.4 0.5,-0.7 0.9,-1 0.4,-0.3 0.7,-0.3 1.1,-0.3 z"
     id="path174" /><path
     class="st2"
     d="m 288.4,206.9 c -0.9,0 -1.7,-0.3 -2.2,-0.9 -0.5,-0.6 -0.8,-1.4 -0.8,-2.4 0,-1 0.3,-1.9 0.8,-2.5 0.5,-0.6 1.2,-0.9 2.1,-0.9 0.8,0 1.4,0.3 1.9,0.8 0.5,0.5 0.7,1.2 0.7,2.1 v 0.6 h -4.4 c 0,0.8 0.2,1.3 0.6,1.7 0.4,0.4 0.9,0.6 1.5,0.6 0.7,0 1.4,-0.1 2,-0.4 v 0.9 c -0.3,0.1 -0.7,0.3 -1,0.3 -0.4,0.1 -0.8,0.1 -1.2,0.1 z m -0.3,-5.8 c -0.5,0 -0.9,0.2 -1.2,0.5 -0.3,0.3 -0.5,0.8 -0.5,1.4 h 3.4 c 0,-0.6 -0.1,-1.1 -0.4,-1.4 -0.4,-0.4 -0.7,-0.5 -1.3,-0.5 z"
     id="path176" /><path
     class="st2"
     d="m 294.7,206.9 c -0.8,0 -1.5,-0.3 -1.9,-0.9 -0.5,-0.6 -0.7,-1.4 -0.7,-2.4 0,-1 0.2,-1.9 0.7,-2.5 0.5,-0.6 1.1,-0.9 2,-0.9 0.9,0 1.6,0.3 2,1 h 0.1 l 0.1,-0.9 h 0.8 v 9.3 h -1 v -2.7 c 0,-0.4 0,-0.7 0.1,-1 h -0.1 c -0.5,0.7 -1.2,1 -2.1,1 z m 0.2,-0.8 c 0.6,0 1.1,-0.2 1.4,-0.5 0.3,-0.3 0.5,-0.9 0.5,-1.8 v -0.2 c 0,-0.9 -0.2,-1.5 -0.5,-1.9 -0.3,-0.4 -0.8,-0.6 -1.4,-0.6 -0.6,0 -1,0.2 -1.3,0.7 -0.3,0.4 -0.5,1.1 -0.5,1.9 0,0.8 0.1,1.4 0.4,1.8 0.3,0.4 0.8,0.6 1.4,0.6 z"
     id="path178" /><path
     class="st2"
     d="m 300.7,200.4 v 4.2 c 0,0.5 0.1,0.9 0.4,1.2 0.2,0.3 0.6,0.4 1.1,0.4 0.7,0 1.2,-0.2 1.5,-0.5 0.3,-0.4 0.5,-1 0.5,-1.8 v -3.4 h 1 v 6.4 h -0.8 l -0.1,-0.9 h -0.1 c -0.2,0.3 -0.5,0.6 -0.8,0.7 -0.3,0.1 -0.8,0.3 -1.2,0.3 -0.8,0 -1.4,-0.2 -1.8,-0.6 -0.4,-0.4 -0.6,-1 -0.6,-1.8 v -4.2 z"
     id="path180" /><path
     class="st2"
     d="m 309.8,206.9 c -0.9,0 -1.7,-0.3 -2.2,-0.9 -0.5,-0.6 -0.8,-1.4 -0.8,-2.4 0,-1 0.3,-1.9 0.8,-2.5 0.5,-0.6 1.2,-0.9 2.1,-0.9 0.8,0 1.4,0.3 1.9,0.8 0.5,0.5 0.7,1.2 0.7,2.1 v 0.6 h -4.4 c 0,0.8 0.2,1.3 0.6,1.7 0.4,0.4 0.9,0.6 1.5,0.6 0.7,0 1.4,-0.1 2,-0.4 v 0.9 c -0.3,0.1 -0.7,0.3 -1,0.3 -0.3,0.1 -0.7,0.1 -1.2,0.1 z m -0.2,-5.8 c -0.5,0 -0.9,0.2 -1.2,0.5 -0.3,0.3 -0.5,0.8 -0.5,1.4 h 3.4 c 0,-0.6 -0.1,-1.1 -0.4,-1.4 -0.4,-0.4 -0.8,-0.5 -1.3,-0.5 z"
     id="path182" /><path
     class="st2"
     d="m 318,205 c 0,0.6 -0.2,1.1 -0.7,1.4 -0.4,0.3 -1.1,0.5 -1.9,0.5 -0.9,0 -1.5,-0.1 -2,-0.4 v -0.9 c 0.3,0.2 0.6,0.3 1,0.4 0.4,0.1 0.7,0.1 1,0.1 0.5,0 0.9,-0.1 1.2,-0.2 0.3,-0.2 0.4,-0.4 0.4,-0.7 0,-0.2 -0.1,-0.5 -0.3,-0.6 -0.2,-0.2 -0.6,-0.4 -1.3,-0.6 -0.6,-0.2 -1,-0.4 -1.3,-0.6 -0.3,-0.2 -0.4,-0.4 -0.6,-0.6 -0.1,-0.2 -0.2,-0.5 -0.2,-0.8 0,-0.5 0.2,-0.9 0.6,-1.2 0.4,-0.3 1,-0.5 1.8,-0.5 0.7,0 1.4,0.1 2,0.4 l -0.3,0.8 c -0.6,-0.3 -1.2,-0.4 -1.8,-0.4 -0.5,0 -0.8,0.1 -1,0.2 -0.2,0.1 -0.4,0.3 -0.4,0.6 0,0.2 0,0.3 0.1,0.4 0.1,0.1 0.2,0.2 0.4,0.3 0.2,0.1 0.6,0.3 1.1,0.5 0.8,0.3 1.3,0.6 1.5,0.8 0.6,0.4 0.7,0.7 0.7,1.1 z"
     id="path184" /><path
     class="st2"
     d="m 321.7,206.1 c 0.2,0 0.3,0 0.5,0 0.2,0 0.3,-0.1 0.4,-0.1 v 0.7 c -0.1,0.1 -0.3,0.1 -0.5,0.1 -0.2,0 -0.4,0 -0.6,0 -1.2,0 -1.9,-0.7 -1.9,-2 V 201 h -0.9 v -0.5 l 0.9,-0.4 0.4,-1.4 h 0.6 v 1.5 h 1.9 v 0.8 h -1.9 v 3.8 c 0,0.4 0.1,0.7 0.3,0.9 0.2,0.3 0.4,0.4 0.8,0.4 z"
     id="path186" /><path
     class="st2"
     d="m 328,205 c 0,0.6 -0.2,1.1 -0.7,1.4 -0.4,0.3 -1.1,0.5 -1.9,0.5 -0.9,0 -1.5,-0.1 -2,-0.4 v -0.9 c 0.3,0.2 0.6,0.3 1,0.4 0.4,0.1 0.7,0.1 1,0.1 0.5,0 0.9,-0.1 1.2,-0.2 0.3,-0.2 0.4,-0.4 0.4,-0.7 0,-0.2 -0.1,-0.5 -0.3,-0.6 -0.2,-0.2 -0.6,-0.4 -1.3,-0.6 -0.6,-0.2 -1,-0.4 -1.3,-0.6 -0.3,-0.2 -0.4,-0.4 -0.6,-0.6 -0.1,-0.2 -0.2,-0.5 -0.2,-0.8 0,-0.5 0.2,-0.9 0.6,-1.2 0.4,-0.3 1,-0.5 1.8,-0.5 0.7,0 1.4,0.1 2,0.4 l -0.3,0.8 c -0.6,-0.3 -1.2,-0.4 -1.8,-0.4 -0.5,0 -0.8,0.1 -1,0.2 -0.2,0.1 -0.4,0.3 -0.4,0.6 0,0.2 0,0.3 0.1,0.4 0.1,0.1 0.2,0.2 0.4,0.3 0.2,0.1 0.6,0.3 1.1,0.5 0.8,0.3 1.3,0.6 1.5,0.8 0.5,0.4 0.7,0.7 0.7,1.1 z"
     id="path188" /><path
     class="st2"
     d="m 335.9,198.2 -3.2,8.6 h -1 l 3.2,-8.6 z"
     id="path190" /><path
     class="st2"
     d="m 344.3,205 c 0,0.6 -0.2,1.1 -0.7,1.4 -0.4,0.3 -1.1,0.5 -1.9,0.5 -0.9,0 -1.5,-0.1 -2,-0.4 v -0.9 c 0.3,0.2 0.6,0.3 1,0.4 0.4,0.1 0.7,0.1 1,0.1 0.5,0 0.9,-0.1 1.2,-0.2 0.3,-0.2 0.4,-0.4 0.4,-0.7 0,-0.2 -0.1,-0.5 -0.3,-0.6 -0.2,-0.2 -0.6,-0.4 -1.3,-0.6 -0.6,-0.2 -1,-0.4 -1.3,-0.6 -0.3,-0.2 -0.4,-0.4 -0.6,-0.6 -0.1,-0.2 -0.2,-0.5 -0.2,-0.8 0,-0.5 0.2,-0.9 0.6,-1.2 0.4,-0.3 1,-0.5 1.8,-0.5 0.7,0 1.4,0.1 2,0.4 l -0.3,0.8 c -0.6,-0.3 -1.2,-0.4 -1.8,-0.4 -0.5,0 -0.8,0.1 -1,0.2 -0.2,0.1 -0.4,0.3 -0.4,0.6 0,0.2 0,0.3 0.1,0.4 0.1,0.1 0.2,0.2 0.4,0.3 0.2,0.1 0.6,0.3 1.1,0.5 0.8,0.3 1.3,0.6 1.5,0.8 0.6,0.4 0.7,0.7 0.7,1.1 z"
     id="path192" /><path
     class="st2"
     d="m 355.2,206.9 c -0.9,0 -1.6,-0.3 -2.2,-0.9 -0.5,-0.6 -0.8,-1.4 -0.8,-2.4 0,-1.1 0.3,-1.9 0.8,-2.5 0.5,-0.6 1.3,-0.9 2.2,-0.9 0.3,0 0.6,0 0.9,0.1 0.3,0.1 0.5,0.1 0.7,0.2 l -0.3,0.8 c -0.2,-0.1 -0.4,-0.2 -0.7,-0.2 -0.3,0 -0.5,-0.1 -0.7,-0.1 -1.3,0 -2,0.8 -2,2.5 0,0.8 0.2,1.4 0.5,1.8 0.3,0.4 0.8,0.6 1.4,0.6 0.5,0 1.1,-0.1 1.6,-0.3 v 0.9 c -0.2,0.3 -0.8,0.4 -1.4,0.4 z"
     id="path196" /><path
     class="st2"
     d="m 286.6,192.4 6.8,-14.7 h -8.9 v -2.4 h 11.8 v 1.9 l -6.7,15.2 z"
     id="path164" /><path
     class="st2"
     d="m 298.9,190.9 c 0,-0.6 0.1,-1 0.4,-1.3 0.3,-0.3 0.7,-0.5 1.3,-0.5 0.6,0 1,0.2 1.3,0.5 0.3,0.3 0.4,0.7 0.4,1.3 0,0.6 -0.2,1 -0.5,1.3 -0.3,0.3 -0.7,0.5 -1.3,0.5 -0.6,0 -1,-0.2 -1.3,-0.5 -0.2,-0.3 -0.3,-0.7 -0.3,-1.3 z"
     id="path166" /><path
     class="st2"
     d="m 316.6,183.8 c 0,3 -0.5,5.2 -1.4,6.6 -0.9,1.4 -2.4,2.2 -4.4,2.2 -1.9,0 -3.3,-0.7 -4.3,-2.2 -1,-1.5 -1.5,-3.7 -1.5,-6.6 0,-3 0.5,-5.2 1.4,-6.7 0.9,-1.5 2.4,-2.1 4.4,-2.1 1.9,0 3.4,0.7 4.3,2.2 0.9,1.5 1.5,3.8 1.5,6.6 z m -8.9,0 c 0,2.3 0.2,4 0.7,5 0.5,1 1.2,1.5 2.3,1.5 1.1,0 1.8,-0.5 2.3,-1.5 0.5,-1 0.7,-2.7 0.7,-5 0,-2.3 -0.2,-4 -0.7,-5 -0.5,-1 -1.3,-1.5 -2.3,-1.5 -1,0 -1.8,0.5 -2.3,1.5 -0.4,1 -0.7,2.7 -0.7,5 z"
     id="path168" /><path
     class="st2"
     d="m 341,192.4 -5,-14.3 h -0.1 c 0.1,2.1 0.2,4.1 0.2,6 v 8.3 h -2.5 v -17.1 h 3.9 l 4.8,13.6 h 0.1 l 4.9,-13.6 h 4 v 17.1 h -2.7 v -8.5 c 0,-0.9 0,-2 0.1,-3.3 0.1,-1.3 0.1,-2.2 0.1,-2.5 h -0.1 l -5.1,14.3 z"
     id="path172" /><path
     class="st2"
     d="m 348.6,206.9 c -0.9,0 -1.7,-0.3 -2.2,-0.9 -0.5,-0.6 -0.8,-1.4 -0.8,-2.4 0,-1 0.3,-1.9 0.8,-2.5 0.5,-0.6 1.2,-0.9 2.1,-0.9 0.8,0 1.4,0.3 1.9,0.8 0.5,0.5 0.7,1.2 0.7,2.1 v 0.6 h -4.4 c 0,0.8 0.2,1.3 0.6,1.7 0.4,0.4 0.9,0.6 1.5,0.6 0.7,0 1.4,-0.1 2,-0.4 v 0.9 c -0.3,0.1 -0.7,0.3 -1,0.3 -0.4,0.1 -0.8,0.1 -1.2,0.1 z m -0.3,-5.8 c -0.5,0 -0.9,0.2 -1.2,0.5 -0.3,0.3 -0.5,0.8 -0.5,1.4 h 3.4 c 0,-0.6 -0.1,-1.1 -0.4,-1.4 -0.4,-0.4 -0.8,-0.5 -1.3,-0.5 z"
     id="path194" /><path
     class="st2"
     d="m 330.7113,192.4 h -11.44956 v -2.08174 l 4.31217,-4.46087 c 1.33826,-1.33826 2.08174,-2.23043 2.52783,-2.82522 0.44608,-0.59478 0.74347,-1.04087 0.89217,-1.48695 0.1487,-0.44609 0.29739,-1.04087 0.29739,-1.63565 0,-0.74348 -0.29739,-1.33827 -0.74348,-1.78435 -0.44608,-0.44609 -1.04087,-0.59479 -1.93304,-0.59479 -0.59478,0 -1.33826,0.1487 -1.93304,0.2974 -0.59479,0.29739 -1.33827,0.74347 -2.08174,1.33826 l -1.48696,-1.78435 c 0.89217,-0.74348 1.93304,-1.33826 2.82522,-1.63565 0.89217,-0.29739 1.78435,-0.44609 2.82521,-0.44609 1.63566,0 2.82522,0.44609 3.86609,1.18957 0.89218,0.89217 1.48696,1.93304 1.48696,3.2713 0,0.74348 -0.1487,1.48696 -0.44609,2.23043 -0.29739,0.74348 -0.74348,1.33827 -1.33826,2.08174 -0.59478,0.74348 -1.48696,1.78435 -2.82522,2.97392 l -2.97391,2.82521 v 0.1487 h 8.02957 V 192.4 Z"
     id="path92-4"
     style="fill:#ffffff;stroke-width:1.48696" /></g></svg>
